    <svg
      xmlns="http://www.w3.org/2000/svg"
      xmlnsmydata="http://www.w3.org/2000/svg"
      viewBox="0 0 550 470"
      transform="scale(2)"
      className="logo-svg"
    >
      <g
        fill="white"
        fillRule="none"
        strokeMiterlimit="10"
        data-paper-data='{"isGlobalGroup":true,"bounds":{"x":68.93905223835841,"y":131.83781179745722,"width":412.1218955232831,"height":206.32420344478498}}'
        fontFamily="none"
        fontSize="none"
        fontWeight="none"
        style={{ mixBlendMode: "normal" }}
        textAnchor="none"
        
      >
        <g
          fillRule="nonzero"
          data-paper-data='{"stacked":true,"isPrimaryText":true}'
        >
          <path
            d="M276.944 157.26l2.624.1.101 7.572c0 4.139.101 19.079.101 33.212v25.64l-1.918.202c-1.413.101-2.019.303-2.523 1.01-.808 1.01-.808 1.211.302 2.322l.909.908 4.543-.202c6.36-.403 9.993-1.312 15.142-3.937 7.066-3.533 12.82-10.6 15.748-19.584 3.432-10.6 2.12-26.347-3.13-37.048-1.514-3.23-2.22-4.138-4.845-6.662-1.615-1.615-3.836-3.533-4.947-4.139-5.35-3.13-13.426-4.543-20.29-3.533-3.735.606-4.745.908-4.947 2.019-.403 1.615.202 2.019 3.13 2.12zm13.224.605c5.855 1.212 11.407 5.452 14.436 10.903 3.533 6.36 5.653 18.17 4.643 26.953-.908 8.58-3.836 15.041-9.186 20.392-2.625 2.523-4.846 3.936-8.58 5.45-1.313.505-2.222.91-2.222.91s-.1-14.537-.1-32.405l-.102-32.505z"
            data-paper-data='{"glyphName":"D","glyphIndex":0,"firstGlyphOfWord":true,"word":1,"line":1,"firstGlyphOfFirstLine":true}'
          ></path>
          <path
            d="M355.28 223.684l-1.313-.202-.908-4.14c-1.313-5.753-3.735-10.599-6.865-13.627l-2.322-2.322 1.918-1.312c4.24-3.13 8.48-9.388 9.792-14.638 1.817-6.763.202-17.06-3.533-23.42-4.845-8.177-12.82-11.609-26.246-11.205-4.24.1-5.149.202-6.36.909-1.211.605-1.514.908-1.514 1.615 0 1.11 1.11 1.514 3.13 1.312l1.614-.202v20.896c0 11.508.101 22.209.303 23.723l.202 2.827-1.918.202c-2.22.303-3.331 1.01-3.331 2.12s.706 1.615 3.129 2.019l2.019.403.303 5.149c.1 2.725.303 5.956.404 7.167l.202 2.12-1.414.303c-2.423.404-3.028 1.211-2.322 3.028.505 1.313 4.341 1.615 11.004 1.01 4.643-.505 5.148-.707 5.148-2.322 0-1.413-.807-2.12-2.725-2.524l-1.11-.202v-7.268c0-5.552.1-7.37.504-7.37.202-.1 1.615-.504 3.13-.908l2.826-.807 1.615 1.211c2.22 1.413 3.836 3.634 5.552 7.268 1.514 3.23 2.928 8.076 2.625 8.884-.101.303-.505.504-.909.504-1.11 0-2.019.909-2.019 2.02 0 1.21.303 1.716 1.313 2.018.504.202 2.927.404 5.35.303 4.946-.1 5.552-.303 5.552-2.12 0-1.211-1.11-2.12-2.827-2.422zm-18.07-21.603c-1.11.404-2.524.908-3.23 1.01l-1.313.302-.202-6.46c-.303-8.076-.303-26.752 0-33.818.202-5.25.303-5.451.909-5.451 1.413 0 7.369 1.716 8.782 2.624 3.533 1.918 7.168 7.268 8.379 12.114 1.01 3.937 1.413 8.883.908 12.316-.908 7.57-6.46 14.233-14.233 17.363z"
            data-paper-data='{"glyphName":"R","glyphIndex":1,"word":1,"line":1}'
          ></path>
          <path
            d="M364.567 156.856l1.11.202.202 6.46c.303 9.288.303 25.641 0 44.317l-.202 16.252-1.211.202c-1.514.303-2.12.808-2.12 1.918 0 1.616.807 1.918 4.643 2.12 1.919.101 3.736.202 4.038.101.303 0 1.313-.202 2.221-.303.808-.1 1.817-.504 2.12-.807.909-1.01.606-2.524-.605-3.029l-.909-.504v-6.057c0-12.417.707-54.916.909-57.44.201-2.322.302-2.725.908-2.725.909 0 2.019-1.212 2.019-2.423 0-.505-.303-1.212-.808-1.716-.807-.707-1.211-.808-7.066-.909h-6.158l-.807 1.01c-1.414 1.514-.606 2.927 1.716 3.33z"
            data-paper-data='{"glyphName":"I","glyphIndex":2,"word":1,"line":1}'
          ></path>
          <path
            d="M433.01 224.39c-.202-.404-.909-.908-1.616-1.11l-1.21-.404.201-7.773c.303-8.58-.303-38.461-.909-43.105-1.21-10.196-3.129-14.435-7.672-16.96-1.716-.908-2.12-1.009-5.653-1.009-3.634.101-4.038.101-6.158 1.11-4.542 2.12-8.782 7.067-12.214 14.235-1.01 2.018-1.918 3.634-2.02 3.533-.1-.101 0-3.735.102-8.177.303-7.268.303-8.076.908-8.076 1.615 0 1.817-2.625.202-3.432-.505-.202-2.826-.606-5.25-.808-4.946-.404-7.772-.1-9.185 1.313-1.515 1.615-.707 2.927 1.918 3.23l1.817.202v17.969c0 16.252.202 22.208.908 42.297l.202 6.158h-1.11c-1.817 0-2.827.706-3.13 2.019-.404 1.716.303 2.725 1.918 2.927 3.332.505 9.187.202 13.023-.606.403-.1.908-.504 1.11-1.009.505-1.211-.202-2.524-1.817-3.331l-1.211-.606-.303-10.902c-.202-6.26-.101-14.436.1-18.979l.303-7.975 1.616-4.946c4.24-12.619 10.296-20.694 15.748-20.694 3.028 0 4.946 2.725 5.956 8.58 1.11 6.46 1.817 22.613 2.018 42.398l.101 12.72-1.514.202c-1.918.202-3.028 1.312-2.624 2.423.302 1.11.504 1.312 2.12 1.615 1.514.404 11.81.1 12.719-.404.808-.404 1.11-1.716.606-2.625z"
            data-paper-data='{"glyphName":"N","glyphIndex":3,"word":1,"line":1}'
          ></path>
          <path
            d="M440.177 157.058l1.514.202-.202 16.757c-.404 22.512-.404 45.629-.1 48.253l.302 2.221h-1.01c-.504 0-1.312.202-1.816.505-1.11.808-.909 2.625.302 3.23.606.303 2.625.404 6.461.404 6.158 0 6.764-.202 6.764-2.22 0-1.212-.606-2.02-2.12-2.625l-1.01-.303v-18.979l1.716 1.414c1.414 1.211 8.38 7.672 16.859 15.647l1.918 1.817-1.11.404c-1.313.403-1.717 1.11-1.212 2.12.505 1.009 2.322 1.413 6.663 1.413 3.936 0 4.24-.101 5.047-.909.404-.505.808-1.01.808-1.211 0-.808-1.717-2.12-2.726-2.12-.606 0-1.11-.202-1.11-.404 0-.606-14.133-14.84-18.373-18.473-2.019-1.716-4.644-3.836-5.855-4.745-1.211-.908-2.221-1.716-2.221-1.817 0-.1.606-1.01 1.413-1.918 6.562-7.874 22.108-30.486 25.54-37.048.404-.808.808-1.11 1.817-1.312 1.615-.303 2.625-1.11 2.625-2.12-.101-1.716-1.615-2.322-5.451-2.02-4.947.304-6.461.91-6.461 2.424 0 .807 1.413 1.817 2.423 1.817.605 0 1.11.202 1.11.302 0 .101-2.12 3.332-4.744 7.168-5.25 7.773-10.297 14.637-14.638 19.988-1.514 1.817-3.028 3.634-3.23 3.937-.303.403-.404-2.625-.202-14.94.1-8.581.202-15.85.303-16.253.1-.303.706-.909 1.312-1.212 1.312-.606 1.615-2.019.707-2.927-1.01-.808-4.947-1.313-8.985-1.11-4.139.302-5.552.908-5.754 2.523-.1 1.312.505 1.716 2.726 2.12z"
            data-paper-data='{"glyphName":"K","glyphIndex":4,"lastGlyphOfWord":true,"word":1,"line":1,"lastGlyphOfFirstLine":true}'
          ></path>
          <path
            d="M282.918 311.372c2.583 2.69 5.92 4.52 9.364 5.382 1.076.323 3.444.538 5.49.43 3.013-.107 3.874-.215 5.704-1.076 6.135-3.121 10.117-10.764 11.947-23.034 1.292-8.503 1.077-14.961-.538-18.728-.538-1.184-1.076-1.722-2.476-2.476-1.722-.86-2.152-.86-9.687-.86-6.673 0-7.965.107-8.933.645-.969.538-1.292.86-1.292 1.937 0 2.153.43 2.26 9.364 2.26 4.413 0 8.288.216 8.611.324.861.43 1.076 1.399 1.292 6.673.323 9.149-1.722 19.159-5.06 24.433-2.582 3.875-4.95 5.274-9.04 5.274-2.153 0-2.691-.215-3.768-.969-3.121-2.368-6.242-8.072-7.534-13.885-.969-4.95-1.4-13.023-.969-20.235.646-9.58 2.799-19.59 5.167-24.218 2.475-4.628 7.426-8.826 10.44-8.826 3.983 0 7.858 4.736 9.15 11.194.43 2.26 1.075 3.337 2.26 3.337 1.614-.108 1.83-.646 2.152-4.198.323-3.875-.215-14.638-.753-16.037-.43-1.077-2.045-1.615-3.014-1.077-.754.43-1.184 2.799-1.076 4.844.107.861.107 1.507 0 1.507-.108 0-.861-.538-1.615-1.184-5.274-4.844-14.1-5.274-20.666-.969-8.718 5.597-14.423 23.142-13.67 42.516.324 12.593 3.337 21.204 9.15 27.016z"
            data-paper-data='{"glyphName":"G","glyphIndex":5,"firstGlyphOfWord":true,"word":2,"line":2,"firstGlyphOfSecondLine":true}'
          ></path>
          <path
            d="M347.175 243.562c-2.26-5.059-5.274-5.704-7.857-1.614-2.153 3.336-5.92 13.885-8.826 24.54-3.337 12.27-8.073 33.582-9.364 42.193-.323 1.722-.323 1.938-1.722 2.153-2.584.538-3.337 1.83-2.045 3.444.645.861.968.969 4.413.969 4.09 0 5.274-.323 5.92-1.507.645-1.076-.323-2.476-1.938-2.799-.646-.215-1.291-.322-1.4-.43-.107 0 0-1.615.324-3.337l.646-3.336 7.642-.216c4.197-.215 9.471-.215 11.732-.107l4.198.323.43 2.045c.215 1.184.538 2.69.754 3.336.215.969.107 1.184-.323 1.4-2.799.86-3.66 2.045-2.584 3.767l.646.968 7.212-.322c8.18-.323 9.256-.539 9.041-2.584-.108-1.184-.969-1.83-2.906-2.26-1.292-.215-.861 1.4-4.844-21.742-5.597-33.69-6.996-40.148-9.149-44.884zm-7.534 55.755c-4.413.215-9.257.43-10.656.538-2.26.215-2.798.108-2.798-.323 0-.753 3.013-12.593 5.92-23.787 2.69-10.118 5.597-19.912 6.673-22.173l.538-1.399 1.292 6.135c.645 3.444 2.26 12.486 3.66 20.128 1.29 7.642 2.582 15.176 2.905 16.683.97 4.413 1.83 3.983-7.534 4.198z"
            data-paper-data='{"glyphName":"A","glyphIndex":6,"word":2,"line":2}'
          ></path>
          <path
            d="M370.102 242.163h1.722l.323 11.84c.215 6.458.215 15.822 0 20.88-.216 8.504.215 28.524.753 34.444l.215 2.69-1.507.216c-1.937.323-2.906 1.615-2.368 3.014.646 1.4 2.045 1.722 8.18 1.614 4.952-.107 5.705-.215 6.351-.86 1.076-.97 1.076-2.584 0-3.445-.969-.646-.969-.646-1.184-12.055-.108-6.243-.215-16.468-.323-22.819v-11.516l1.722-5.167c2.368-7.211 4.736-11.732 7.32-14.53 1.183-1.185 2.26-2.046 2.475-1.938.861.43.969 4.52.969 25.725.107 18.836.43 31.321 1.184 40.578l.107 2.26-1.722.538c-1.399.323-1.83.646-2.045 1.507-.323.969-.323 1.184.538 1.83.861.753 1.292.753 7.427.538 5.274-.107 6.781-.323 7.535-.753 1.83-1.184.753-3.983-1.615-3.983h-1.184l.108-9.149c0-5.059.107-13.885.323-19.697.322-10.225.322-10.44 1.614-14.961 3.767-13.454 8.826-23.68 12.701-25.402 1.507-.753 2.153-.538 2.798.754 1.184 2.906 1.292 5.059 1.4 36.595l.107 31.86h-1.076c-2.368 0-3.444 2.691-1.4 3.66 1.185.646 11.087.646 12.163.107 1.507-.86 1.615-2.906.216-3.767-.323-.215-.43-9.256-.43-31.43 0-28.953 0-31.428-.754-34.12-1.077-4.843-2.583-7.21-5.597-8.61-3.23-1.507-7.32-1.076-10.656 1.184-2.906 2.045-6.996 8.718-9.472 15.607l-1.076 2.906-.215-6.027c-.216-5.813-.216-6.028-1.4-8.396-.968-1.937-1.614-2.798-2.906-3.66-1.614-.968-2.045-1.076-5.059-1.076-2.475 0-3.552.216-4.628.754-2.368 1.184-5.705 5.166-7.857 9.149l-1.83 3.767v-5.49c0-3.982.108-5.489.323-5.489.86 0 1.83-1.292 1.83-2.368 0-.646-.323-1.291-.97-1.722-.86-.646-1.506-.753-4.627-.753-4.736 0-9.15.538-10.333 1.399-2.153 1.507-1.077 3.767 1.83 3.767z"
            data-paper-data='{"glyphName":"M","glyphIndex":7,"word":2,"line":2}'
          ></path>
          <path
            d="M460.3 317.292c1.183.323 3.12.538 4.843.43 3.444-.215 6.243-1.399 9.041-3.982l1.937-1.83.216 1.83c.215 2.26.753 3.014 2.152 3.014 2.153 0 2.368-.646 2.476-13.132.215-12.055.215-12.162-1.614-12.7-.539-.216-1.077 0-1.723.645-.86.754-1.076 1.4-1.722 5.705-.43 2.583-1.076 5.704-1.399 6.78-1.292 4.737-5.382 8.612-9.149 8.612-1.614 0-1.937-.216-3.66-1.83-2.045-1.83-4.09-4.736-5.597-7.75-1.937-3.767-5.166-14.1-5.166-16.576 0-.322.646-.645 1.722-.753 2.476-.323 9.257-2.69 11.625-3.983 4.413-2.583 8.503-7.426 11.301-13.13 3.768-8.074 4.521-17.438 1.83-23.142-3.014-6.566-10.225-9.903-17.006-8.18-6.781 1.722-11.517 6.135-15.607 14.53-3.66 7.642-5.49 16.038-5.49 26.155 0 10.01 1.507 16.899 5.167 24.433 3.875 8.18 9.041 12.916 15.822 14.854zm-10.01-39.717c.537-8.288 2.905-18.083 5.596-23.465 2.583-5.166 5.705-8.826 8.934-10.44 2.26-1.184 3.229-1.184 5.059.215 3.229 2.26 4.736 6.35 4.413 11.517-.754 9.364-5.167 17.544-11.84 21.85-1.184.753-3.983 2.045-6.243 2.798-2.26.754-4.52 1.292-5.059 1.292h-1.076z"
            data-paper-data='{"glyphName":"E","glyphIndex":8,"lastGlyphOfWord":true,"word":2,"line":2,"lastGlyphOfSecondLine":true}'
          ></path>
        </g>
        <g data-paper-data='{"isIcon":"true","iconType":"icon","rawIconId":"4126","selectedEffects":{"container":"","transformation":"","pattern":""},"combineTerms":"drink","isDetailed":false,"fillRule":"evenodd","bounds":{"x":68.93905223835841,"y":131.83781179745722,"width":170.20316782784718,"height":206.32420344478498},"iconStyle":"standalone","suitableAsStandaloneIcon":true}'>
          <path
            fillRule="evenodd"
            d="M228.787 179.202c-4.65-3.101-11.024-5.806-18.926-8.04-15.048-4.24-34.869-6.578-55.826-6.578-15.255 0-29.902 1.246-42.554 3.557L101.348 135.5c-.71-2.293-3.454-3.626-6.885-3.662h-.292c-1.434.015-2.98.253-4.542.738-5.447 1.692-9.028 5.74-8.003 9.052l9.842 31.69c-4.853 1.753-8.934 3.723-12.18 5.888-8.55 5.703-10.349 12.152-10.349 16.557l.266 112.781v1.218l.293 1.178c2.352 9.418 12.4 16.349 30.73 21.187 14.754 3.891 33.866 6.035 53.812 6.035 19.947 0 39.061-2.144 53.813-6.037 18.326-4.836 28.374-11.764 30.726-21.185l.295-1.178v-1.218l.268-112.756c-.002-4.434-1.799-10.884-10.355-16.586zM85.9 140.365c-.004-.025-.006-.043-.012-.066-.467-1.721 1.677-3.893 4.844-4.877 3.17-.982 6.165-.407 6.751 1.28.004.017.014.038.023.059.536 1.735-1.622 3.947-4.828 4.94-3.204.996-6.24.397-6.778-1.336zm33.763 54.146l-5.202-16.762c11.497-2.014 25.054-3.173 39.575-3.173 40.871 0 74.114 9.202 75.09 20.665.006.089.01.178.01.269-.226 5.352-7.788 10.175-21.352 13.613-13.523 3.433-32.61 5.32-53.748 5.32-10.246 0-19.879-.503-28.619-1.421l-1.908-6.144c9.055 1.133 19.553 1.745 30.523 1.745 15.176 0 29.472-1.163 40.246-3.268 12.611-2.461 18.49-5.713 18.49-10.221v-.004c-.005-3.67-3.847-6.446-12.084-8.724a2.485 2.485 0 00-3.072 1.736 2.493 2.493 0 001.742 3.076c6.6 1.826 8.083 3.458 8.368 3.88a.15.15 0 01.021.04c-.277.452-2.472 3.124-15.596 5.546-10.327 1.896-23.86 2.946-38.115 2.946-11.65 0-22.819-.701-32.155-1.995zm-25.227-11.645l2.608 8.416c-.945.945-1.496 1.964-1.674 3.07a4.729 4.729 0 00-.066.788c0 2.323 1.568 4.316 4.812 6.037l2.486 8.004c-14.581-3.636-23.447-8.893-23.463-14.94v-.05c1.095-4.244 6.629-8.135 15.297-11.325zM79.05 248.122l-.101-44.232c3.672 3.376 9.908 6.749 20.176 9.549 1.663.454 3.398.88 5.198 1.286l6.493 20.913c-15.613 2.896-27.144 7.316-31.766 12.484zm149.975 0c-8.267-9.245-38.7-16.105-74.989-16.105-7.805 0-15.34.313-22.44.907l-4.567-14.715c8.45.807 17.558 1.23 27.007 1.23 21.543 0 41.06-1.935 54.974-5.468 9.253-2.345 15.961-5.323 20.116-8.915zm-78.577 18.592v-.002l3.475-13.188c.13-.487.305-.951.514-1.387 1.54-3.138 5.127-4.87 8.634-3.953l15.048 3.953 3.887 1.026c3.924 1.029 6.456 5.104 5.651 9.072l-1.139 5.616a2.499 2.499 0 01-2.948 1.946 2.491 2.491 0 01-1.948-2.945l1.145-5.61c.283-1.401-.644-2.886-2.026-3.253l-.254-.062c-.058-.017-.117-.017-.169-.033l-9.786-2.57a2.492 2.492 0 00-3.049 1.78l-2.204 8.368c-.532 1.993-1.82 3.712-3.549 4.721a6.924 6.924 0 01-3.458.951c-.565 0-1.13-.079-1.685-.221l-4.362-1.159a1.749 1.749 0 01-.32-.118c-.049-.021-.103-.035-.15-.054-.102-.049-.188-.113-.277-.173-.045-.029-.099-.056-.14-.087-.083-.064-.15-.14-.225-.214-.04-.044-.089-.074-.128-.122-.066-.074-.12-.163-.177-.248-.03-.047-.073-.086-.102-.14a2.5 2.5 0 01-.123-.27c-.025-.056-.058-.112-.079-.165-.037-.101-.049-.202-.074-.306-.01-.055-.03-.107-.039-.158-.014-.098-.013-.194-.013-.292v-.059a.69.69 0 00-.004-.067c-.003-.026-.006-.05-.004-.076.008-.117.035-.239.058-.361.008-.047.008-.09.02-.14zm-15.305 4.162a2.497 2.497 0 01-3.532-.037l-2.785-2.846a2.126 2.126 0 01-.39-.317l-4.154-4.236c-1-1.017-2.754-1.083-3.827-.145l-8.676 7.597-6.055 5.303c-.939.817-1.403 1.605-1.558 2.032.266.359.44.695.553 1.005l.163.186a2.495 2.495 0 01-1.874 4.147 2.489 2.489 0 01-1.873-.846l-3.718-4.207a7.41 7.41 0 01-1.849-5.429 7.43 7.43 0 012.528-5.141l.157-.136 14.578-12.764a7.618 7.618 0 013.48-1.71 7.947 7.947 0 013.13-.027 7.627 7.627 0 014.072 2.146l11.663 11.89a2.5 2.5 0 01-.033 3.535zm-17.195 16.561l-.194-.802c-.955-4.017 1.533-8.065 5.553-9.021l15.461-3.689 3.586-.848c2.196-.526 4.457-.016 6.231 1.209 1.41.98 2.511 2.41 3.025 4.129l1.921 6.414.301 1.009.136.454c.104.349.126.698.081 1.038a2.512 2.512 0 01-.32.929 2.516 2.516 0 01-1.632 1.582c-.004 0-.012.01-.02.01a2.49 2.49 0 01-1.389 0 2.49 2.49 0 01-1.717-1.692l-.229-.775-.435-1.482-.297-.996-.062-.213c-.11-.363-1.319-.965-2.91-.586l-4.532 1.079-5.697 1.358-8.814 2.1c-.25.06-.475.167-.685.289a2.53 2.53 0 00-1.205 2.656c.006.037.002.061.012.088l.017.075c.161.685.274 1.19.35 1.526.03.116.048.225.067.333.002.018.01.035.012.043h-.002v.018l.765 3.225c.331 1.362 1.57 2.315 2.716 2.086l4.48-.906a2.495 2.495 0 01.992 4.892l-4.484.908a6.765 6.765 0 01-1.33.132c-3.306 0-6.397-2.449-7.233-5.958l-1.107-4.653c-.038-.153-.079-.314-.118-.485l-.153-.641-.575-2.429-.262-1.104-.002-.012-.073-.314zm88.955 3.454a2.5 2.5 0 01-.365.997 2.502 2.502 0 01-.677.701c-.264.18-.553.297-.846.368a2.486 2.486 0 01-2.228-.56 2.404 2.404 0 01-.405-.445l-.93-1.352-.863-1.246-2.903-4.192c-.845-.78-2.19-.929-3.179-.277l-3.976 2.612-1.242.821-1.849 1.214-3.185 2.094-6.194 4.075c-1.269.837-1.655 1.916-1.587 2.191l1.82 2.806c.043.064.068.138.114.208.037.077.078.149.111.227.033.074.047.159.07.239.023.079.05.153.062.232.016.08.016.165.027.245.001.03.005.06.008.09.005.048.01.095.008.143-.004.085-.016.165-.027.246-.012.072-.012.15-.028.227-.015.082-.044.154-.068.233a2.992 2.992 0 01-.069.225c-.03.074-.074.142-.11.214-.044.07-.075.143-.119.211-.043.068-.1.128-.154.192-.052.064-.097.128-.159.187a1.502 1.502 0 01-.196.161c-.058.05-.112.108-.178.149-.008.002-.014.006-.016.01a.08.08 0 00-.015.013c-.016.008-.037.018-.05.028a.802.802 0 01-.113.058c-.047.027-.097.06-.148.083-.064.027-.126.047-.186.07-.056.016-.1.041-.155.056a1.282 1.282 0 01-.22.049.628.628 0 00-.126.031 2.46 2.46 0 01-.353.021c-.105 0-.204-.004-.303-.017-.029-.004-.058-.012-.089-.016-.07-.013-.14-.023-.215-.039-.035-.009-.068-.025-.105-.036a4.73 4.73 0 01-.18-.055c-.039-.017-.076-.035-.117-.05-.054-.027-.11-.047-.16-.076-.044-.017-.077-.045-.118-.066-.005 0-.01-.006-.017-.015-.043-.028-.089-.049-.132-.076-.039-.027-.072-.06-.11-.089-.049-.039-.092-.064-.134-.105a1.745 1.745 0 01-.103-.107c-.04-.043-.082-.079-.117-.12-.035-.043-.06-.082-.093-.119a3.775 3.775 0 01-.095-.126l-4.61-6.91a7.442 7.442 0 01-.93-6.312 7.38 7.38 0 011.257-2.42 7.56 7.56 0 011.436-1.4c.111-.085.218-.17.336-.246l.99-.656 15.357-10.12c3.427-2.258 8.107-1.348 10.442 2.028l2.113 3.055c.03.037.062.079.091.12l1.005 1.446c.206.223.394.477.575.735l.673.99.877 1.286c.125.185.225.356.311.532l2.443 3.534c.384.559.51 1.19.421 1.795z"
            data-paper-data='{"isPathIcon":true}'
          ></path>
        </g>
      </g>
    </svg>